<?xml version="1.0" encoding="UTF-8" standalone="no"?>
<!DOCTYPE svg PUBLIC "-//W3C//DTD SVG 1.1//EN" "http://www.w3.org/Graphics/SVG/1.1/DTD/svg11.dtd">
<svg width="100%" height="100%" viewBox="0 0 1200 334" version="1.1" xmlns="http://www.w3.org/2000/svg" xmlns:xlink="http://www.w3.org/1999/xlink" xml:space="preserve" xmlns:serif="http://www.serif.com/" style="fill-rule:evenodd;clip-rule:evenodd;stroke-linejoin:round;stroke-miterlimit:2;">
    <rect id="Artboard1" x="0" y="0" width="1199.66" height="333.356" style="fill:none;"/>
    <g id="Artboard11" serif:id="Artboard1">
        <g id="Layer-1" serif:id="Layer 1" transform="matrix(1,0,0,1,-7.32484,-212.693)">
            <g transform="matrix(1,0,0,1,119.133,384.377)">
                <path d="M0,-2.462C0,-2.462 0.393,-0.193 1.129,4.062C1.901,8.284 3.059,14.484 5.262,21.945C7.451,29.395 10.855,38.078 16.468,46.699C17.867,48.854 19.404,51.004 21.104,53.119C22.754,55.264 24.582,57.367 26.545,59.438C30.487,63.564 34.95,67.596 39.979,71.393C45.24,75.411 50.223,78.779 56.183,81.967C62.056,85.078 68.362,87.768 75.028,89.856C88.368,93.945 103.171,95.734 118.1,93.988C133.02,92.426 147.967,87.447 161.244,79.348C167.879,75.292 174.074,70.434 179.702,64.938C181.137,63.592 182.474,62.143 183.8,60.682L184.806,59.596L184.932,59.46C185.203,59.148 184.701,59.736 184.804,59.613L185.077,59.285L185.623,58.63L187.809,56.008C188.621,55.073 189.065,54.404 189.622,53.662L191.267,51.483C192.366,49.883 193.534,48.265 194.595,46.613C203.093,33.331 208.43,18.083 210.171,2.559C211.932,-12.967 210.119,-28.682 205.31,-42.948C200.465,-57.21 192.761,-70.043 183.251,-80.464C182.071,-81.775 180.828,-83.013 179.632,-84.288L179.406,-84.525L179.293,-84.644C179.351,-84.6 179.003,-84.91 179.394,-84.575L178.867,-85.07L177.817,-86.058C177.145,-86.677 176.36,-87.457 175.788,-87.937C173.538,-89.922 170.872,-92.095 168.181,-93.975C162.835,-97.852 157.09,-100.961 151.333,-103.578C139.795,-108.825 128.126,-111.884 117.587,-113.666C107.023,-115.467 97.537,-115.941 89.707,-115.884C81.874,-115.783 75.665,-115.15 71.469,-114.42C67.268,-113.705 65.025,-113.125 65.025,-113.125C65.025,-113.125 65.529,-113.403 66.506,-113.941C67.483,-114.489 68.959,-115.259 70.948,-116.139C74.925,-117.868 80.927,-120.264 88.93,-122.112C96.916,-123.996 106.866,-125.53 118.468,-125.701C130.053,-125.858 143.338,-124.67 157.527,-120.577C164.608,-118.525 171.883,-115.683 179.087,-111.822C179.986,-111.335 180.89,-110.845 181.797,-110.354C182.679,-109.813 183.566,-109.269 184.456,-108.724C186.214,-107.696 188.09,-106.33 189.934,-105.063C190.885,-104.404 191.512,-103.893 192.322,-103.297L193.475,-102.431L194.054,-101.996L194.877,-101.3C196.488,-99.924 198.149,-98.571 199.752,-97.129C212.534,-85.564 223.7,-70.379 230.961,-52.655C231.94,-50.469 232.673,-48.18 233.537,-45.923C234.327,-43.643 235.035,-41.322 235.744,-38.992C236.989,-34.287 238.115,-29.499 238.851,-24.608C240.364,-14.846 240.982,-4.749 240.071,5.352C239.224,15.446 237.275,25.566 234.06,35.351C230.753,45.101 226.291,54.512 220.797,63.275C219.417,65.467 217.948,67.571 216.473,69.728L213.989,72.992C213.163,74.059 212.274,75.238 211.582,76.013L209.372,78.614L208.819,79.264L208.543,79.589L208.131,80.058L207.966,80.234L206.646,81.644C204.897,83.533 203.127,85.397 201.241,87.15C193.822,94.261 185.643,100.594 176.778,105.585C167.952,110.627 158.644,114.633 149.128,117.455C139.588,120.203 129.881,121.79 120.309,122.344C101.139,123.396 82.559,119.921 66.499,113.308C58.445,110.044 50.997,106.013 44.297,101.446C37.671,96.964 31.272,91.688 26.314,86.631C15.958,76.035 8.376,64.205 4.051,52.962C-0.403,41.725 -1.707,31.349 -2.017,23.094C-2.28,14.788 -1.51,8.42 -0.988,4.113C-0.732,1.961 -0.468,0.314 -0.28,-0.788C-0.095,-1.892 0,-2.462 0,-2.462" style="fill:rgb(129,188,0);fill-rule:nonzero;"/>
            </g>
            <g transform="matrix(1,0,0,1,120.167,402.309)">
                <path d="M0,-46.072C0,-46.072 -0.024,-45.467 -0.069,-44.294C-0.14,-43.122 -0.145,-41.373 -0.189,-39.133C-0.248,-34.634 0.048,-28.023 1.253,-19.851C2.495,-11.691 4.84,-1.947 9.203,8.419C13.551,18.765 19.974,29.719 28.962,39.787C31.205,42.303 33.591,44.772 36.139,47.155C37.398,48.36 38.729,49.513 40.067,50.673C40.734,51.255 41.44,51.801 42.127,52.37L43.166,53.218C42.866,52.956 43.167,53.208 43.137,53.178L43.283,53.288L43.574,53.508L44.156,53.947C44.934,54.534 45.716,55.124 46.5,55.716L47.679,56.606L48.77,57.347C50.258,58.311 51.57,59.334 53.204,60.28C56.331,62.235 59.581,64.083 62.981,65.72C69.769,69.011 77.003,71.777 84.628,73.653C92.246,75.528 100.204,76.613 108.296,76.782C124.474,77.147 141.177,73.723 156.33,66.501C163.952,62.975 171.025,58.268 177.617,52.973C179.309,51.699 180.813,50.193 182.43,48.823C183.953,47.347 185.5,45.89 186.964,44.349L189.128,42.004L189.67,41.419L189.942,41.126C189.538,41.598 189.913,41.158 189.86,41.218L190.005,41.045L191.161,39.659L193.474,36.887L195.264,34.484C196.462,32.978 197.668,31.132 198.874,29.405C200.055,27.642 201.137,25.815 202.237,24.003C204.291,20.296 206.291,16.549 207.865,12.62C211.161,4.829 213.504,-3.337 214.84,-11.625C215.232,-13.689 215.375,-15.784 215.668,-17.857C215.784,-19.944 216.04,-22.024 216.06,-24.109C216.143,-26.192 216.219,-28.273 216.149,-30.35C216.169,-32.43 216,-34.496 215.881,-36.561C215.308,-44.822 213.578,-52.88 211.234,-60.609C206.394,-76.051 198.077,-89.832 187.877,-100.957C186.611,-102.358 185.263,-103.668 183.974,-105.024C182.89,-106.101 181.034,-107.842 179.793,-108.932C177.231,-111.267 174.237,-113.59 171.403,-115.747C165.615,-120.027 159.574,-123.593 153.512,-126.543C141.363,-132.432 129.091,-135.677 117.958,-137.035C106.809,-138.427 96.802,-138.029 88.625,-136.964C80.438,-135.887 74.03,-134.264 69.722,-132.961C67.563,-132.315 65.909,-131.783 64.803,-131.397C63.69,-131.025 63.115,-130.832 63.115,-130.832C63.115,-130.832 63.629,-131.152 64.626,-131.771C65.623,-132.395 67.099,-133.339 69.115,-134.409C73.133,-136.552 79.152,-139.683 87.415,-142.313C95.643,-144.995 106.122,-147.225 118.439,-147.569C124.591,-147.753 131.18,-147.376 138.089,-146.411C144.988,-145.397 152.171,-143.655 159.491,-141.181C166.792,-138.661 174.16,-135.258 181.419,-131.04C185.062,-128.88 188.527,-126.611 192.2,-123.868C193.162,-123.18 193.906,-122.582 194.715,-121.957L195.917,-121.023L196.52,-120.554L196.671,-120.437L196.966,-120.186L197.282,-119.917C198.954,-118.468 200.687,-117.053 202.345,-115.529C215.587,-103.349 227.051,-87.3 234.052,-68.584C237.584,-59.257 240.067,-49.315 241.238,-39.071C242.417,-28.835 242.488,-18.287 240.991,-7.826C239.553,2.628 236.968,13.076 232.806,22.967C230.836,27.956 228.372,32.743 225.789,37.457C224.425,39.772 223.062,42.096 221.587,44.343C220.057,46.576 218.665,48.789 216.865,51.056L214.282,54.398L210.778,58.526L210.257,59.132L209.913,59.5L209.226,60.235L206.47,63.169C204.605,65.096 202.642,66.932 200.693,68.771C198.646,70.506 196.705,72.361 194.562,73.974C186.198,80.672 176.977,86.231 167.306,90.484C157.655,94.79 147.552,97.822 137.371,99.465C127.207,101.173 116.983,101.681 107.046,100.825C87.14,99.36 68.52,92.931 53.113,83.592C49.249,81.271 45.599,78.734 42.131,76.095C40.388,74.855 38.649,73.291 36.945,71.918L35.683,70.861L34.604,69.851L32.462,67.844L31.224,66.696L30.123,65.585C29.397,64.841 28.655,64.122 27.954,63.367C26.549,61.861 25.164,60.367 23.86,58.825C21.23,55.766 18.778,52.66 16.598,49.467C7.737,36.778 2.285,23.621 -0.727,11.716C-3.746,-0.22 -4.464,-10.894 -4.176,-19.534C-3.924,-28.193 -2.672,-34.845 -1.736,-39.306C-1.247,-41.548 -0.8,-43.229 -0.475,-44.357C-0.162,-45.488 0,-46.072 0,-46.072" style="fill:rgb(61,91,89);fill-rule:nonzero;"/>
            </g>
            <g transform="matrix(1,0,0,1,113.479,315.783)">
                <path d="M0,81.513C-0.688,81.162 -1.415,80.968 -2.172,80.973C-8.578,81.029 -34.386,89.88 -47.188,91.96C-45.505,86.775 -44.581,79.858 -44.615,75.919C-44.663,69.999 -83.351,44.203 -103.695,29.095C-93.346,28.513 -81.018,28.407 -81.088,20.519C-81.181,9.671 -87.693,-2.109 -92.204,-10.447C-87.039,-8.618 -82.367,-7.084 -78.149,-5.842L-0.182,60.747L0,81.513Z" style="fill:rgb(61,91,89);fill-rule:nonzero;"/>
            </g>
            <g transform="matrix(1,0,0,1,44.765,312.521)">
                <path d="M0,-1.719C4.383,-0.805 8.107,-0.361 11.273,-0.389C15.22,-0.42 14.09,-16.434 12.808,-22.339L13.298,-22.841C28.01,-3.243 41.515,18.581 48.416,18.519C56.306,18.451 53.012,8.128 51.218,0.499C46.364,-18.934 40.025,-39.586 35.68,-57.796C43.869,-50.962 50.325,-45.595 55.258,-45.636C59.196,-45.67 63.208,-50.612 66.687,-57.648L67.672,56.077L0,-1.719Z" style="fill:rgb(129,188,0);fill-rule:nonzero;"/>
            </g>
            <g transform="matrix(1,0,0,1,132.004,326.238)">
                <path d="M0,63.372L99.791,-27.136L103.904,-28.646C98.803,-18.803 91.425,-4.892 91.536,7.79C91.615,17.012 106.032,16.888 118.143,17.36C94.66,35.443 49.949,66.39 50.009,73.313C50.048,77.927 51.273,85.982 53.341,92.018C38.327,89.845 12.047,77.101 4.552,77.165C3.88,77.17 0,63.372 0,63.372" style="fill:rgb(129,188,0);fill-rule:nonzero;"/>
            </g>
            <g transform="matrix(1,0,0,1,116.763,260.723)">
                <path d="M0,135.241L-1.471,-34.464C-0.431,-37.982 0.463,-41.544 1.192,-44.995L1.77,-44.999C6.262,-25.43 16.265,-2.448 25.493,-2.529C31.26,-2.578 38.702,-8.986 48.145,-17.142C43.428,4.236 36.43,28.513 31.148,51.339C29.207,60.289 25.566,72.431 34.788,72.35C42.865,72.281 58.209,46.489 75.019,23.274L75.603,23.847C74.218,30.784 73.23,49.533 77.842,49.494C84.066,49.44 92.111,47.792 102.509,44.559L9.936,126.45C9.936,126.45 6.499,133.429 15.74,156.834C24.98,180.24 0,135.241 0,135.241" style="fill:rgb(61,91,89);fill-rule:nonzero;"/>
            </g>
            <g transform="matrix(1,0,0,1,391.621,450.492)">
                <path d="M0,-28.409C6.518,-22.126 13.309,-15.168 24.851,-15.168C37.889,-15.168 49.975,-25.692 49.975,-45.725C49.975,-66.266 37.21,-76.451 24.309,-76.451C12.087,-76.451 5.161,-69.151 0,-63.889L0,-28.409ZM-16.838,-91.39L-0.271,-91.39L-0.271,-79.677C3.531,-84.26 11.952,-94.446 27.975,-94.446C52.012,-94.446 67.087,-74.075 67.087,-46.403C67.087,-15.508 49.296,2.827 28.655,2.827C13.987,2.827 7.198,-3.285 0,-9.733L0,66.037L-16.838,66.037L-16.838,-91.39Z" style="fill:rgb(61,91,89);fill-rule:nonzero;"/>
            </g>
            <g transform="matrix(1,0,0,1,483.835,450.249)">
                <path d="M0,-28.166C6.518,-21.883 13.308,-14.925 24.852,-14.925C37.888,-14.925 49.976,-25.449 49.976,-45.482C49.976,-66.023 37.209,-76.208 24.309,-76.208C12.087,-76.208 5.161,-68.908 0,-63.646L0,-28.166ZM-16.84,-91.147L-0.272,-91.147L-0.272,-79.434C3.531,-84.017 11.951,-94.203 27.974,-94.203C52.012,-94.203 67.085,-73.832 67.085,-46.16C67.085,-15.265 49.296,3.07 28.654,3.07C13.987,3.07 7.198,-3.042 0,-9.49L0,66.037L-16.84,66.037L-16.84,-91.147Z" style="fill:rgb(61,91,89);fill-rule:nonzero;"/>
            </g>
            <g transform="matrix(1,0,0,1,622.31,405.108)">
                <path d="M0,-0.851C0,-22.241 -11,-31.067 -23.765,-31.067C-36.666,-31.067 -47.53,-22.241 -47.53,-0.851C-47.53,18.504 -38.838,30.215 -23.765,30.215C-8.692,30.215 0,18.504 0,-0.851M-64.64,-0.512C-64.64,-24.957 -52.826,-49.062 -23.765,-49.062C5.297,-49.062 17.111,-24.957 17.111,-0.512C17.111,35.818 -3.803,48.211 -23.765,48.211C-43.727,48.211 -64.64,35.818 -64.64,-0.512" style="fill:rgb(61,91,89);fill-rule:nonzero;"/>
            </g>
            <g transform="matrix(1,0,0,1,647.03,447.207)">
                <path d="M0,-88.105L16.84,-88.105L16.84,-74.524L17.246,-74.524C20.915,-81.994 28.248,-91.161 42.778,-91.161C45.223,-91.161 46.988,-91.161 48.753,-90.823L48.753,-68.073C47.123,-68.583 44.001,-69.77 38.433,-69.77C16.977,-69.601 16.977,-51.777 16.84,-45.325L16.84,3.056L0,3.056L0,-88.105Z" style="fill:rgb(61,91,89);fill-rule:nonzero;"/>
            </g>
            <g transform="matrix(1,0,0,1,699.449,423.61)">
                <path d="M0,-61.453L13.036,-61.453L13.036,-91.162L29.876,-91.162L29.876,-61.453L55.273,-61.453L55.273,-43.459L29.876,-43.459L29.876,-1.696C29.876,4.755 31.914,11.713 41.691,11.713C44.951,11.713 51.743,10.696 56.088,9.167L56.088,27.672C47.802,29.031 43.866,29.709 37.889,29.709C21.865,29.709 13.036,23.258 13.036,3.225L13.036,-43.459L0,-43.459L0,-61.453Z" style="fill:rgb(61,91,89);fill-rule:nonzero;"/>
            </g>
            <g transform="matrix(1,0,0,1,834.168,362.158)">
                <path d="M0,88.104L-16.568,88.104L-16.568,76.732C-21.591,83.184 -29.061,91.161 -43.865,91.161C-59.072,91.161 -72.384,83.184 -72.384,55.341L-72.384,-3.057L-55.542,-3.057L-55.542,47.531C-55.542,65.526 -51.196,73.165 -39.924,73.165C-26.481,73.165 -21.05,66.207 -16.84,59.756L-16.84,-3.057L0,-3.057L0,88.104Z" style="fill:rgb(61,91,89);fill-rule:nonzero;"/>
            </g>
            <g transform="matrix(1,0,0,1,846.529,447.207)">
                <path d="M0,-88.105L16.57,-88.105L16.57,-76.732C21.865,-83.182 29.065,-91.161 43.866,-91.161C59.074,-91.161 72.384,-83.182 72.384,-55.342L72.384,3.056L55.544,3.056L55.544,-47.532C55.544,-65.527 51.198,-73.166 39.926,-73.166C26.483,-73.166 21.05,-66.207 16.842,-59.755L16.842,3.056L0,3.056L0,-88.105Z" style="fill:rgb(61,91,89);fill-rule:nonzero;"/>
            </g>
            <g transform="matrix(1,0,0,1,0,-17.946)">
                <path d="M932.636,377.048L949.474,377.048L949.474,468.209L932.636,468.209L932.636,377.048ZM932.636,341.737L949.474,341.737L949.474,360.411L932.636,360.411L932.636,341.737Z" style="fill:rgb(61,91,89);fill-rule:nonzero;"/>
            </g>
            <g transform="matrix(1,0,0,1,955.317,423.61)">
                <path d="M0,-61.453L13.036,-61.453L13.036,-91.162L29.88,-91.162L29.88,-61.453L55.273,-61.453L55.273,-43.459L29.88,-43.459L29.88,-1.696C29.88,4.755 31.915,11.713 41.691,11.713C44.951,11.713 51.743,10.696 56.088,9.167L56.088,27.672C47.803,29.031 43.866,29.709 37.89,29.709C21.867,29.709 13.036,23.258 13.036,3.225L13.036,-43.459L0,-43.459L0,-61.453Z" style="fill:rgb(61,91,89);fill-rule:nonzero;"/>
            </g>
            <g transform="matrix(1,0,0,1,0,-17.946)">
                <path d="M1019.01,377.048L1035.85,377.048L1035.85,468.209L1019.01,468.209L1019.01,377.048ZM1019.01,341.737L1035.85,341.737L1035.85,360.411L1019.01,360.411L1019.01,341.737Z" style="fill:rgb(61,91,89);fill-rule:nonzero;"/>
            </g>
            <g transform="matrix(1,0,0,1,1108.37,415.123)">
                <path d="M0,-20.881C-2.578,-36.329 -11,-42.101 -23.084,-42.101C-31.913,-42.101 -42.097,-38.367 -45.492,-20.881L0,-20.881ZM16.568,7.808C15.347,15.279 5.57,38.196 -21.456,38.196C-47.529,38.196 -63.147,17.825 -63.147,-10.695C-63.147,-36.499 -49.566,-59.077 -22.678,-59.077C4.755,-58.739 17.926,-37.517 17.926,-4.585L-46.036,-4.585C-45.358,1.188 -42.778,20.2 -22,21.22C-11.406,21.22 -4.345,14.941 -1.9,7.808L16.568,7.808Z" style="fill:rgb(61,91,89);fill-rule:nonzero;"/>
            </g>
            <g transform="matrix(1,0,0,1,1189.32,422.084)">
                <path d="M0,-34.973C-2.58,-39.217 -8.42,-49.232 -23.766,-49.232C-35.988,-49.232 -40.061,-43.29 -40.061,-38.197C-40.061,-31.068 -32.999,-29.879 -22.951,-28.181C-2.988,-24.956 15.208,-21.221 15.208,1.357C15.208,28.178 -9.372,31.235 -21.184,31.235C-46.309,31.235 -54.186,18.674 -60.432,8.996L-46.173,-1.358C-40.333,10.525 -30.15,14.259 -19.555,14.259C-10.591,14.259 -2.445,10.864 -2.445,2.886C-2.445,-4.076 -6.52,-4.753 -24.445,-7.809C-52.012,-12.224 -57.716,-23.258 -57.716,-37.179C-57.716,-46.686 -51.741,-66.208 -23.358,-66.208C-15.075,-66.208 2.987,-63.832 13.988,-44.648L0,-34.973Z" style="fill:rgb(61,91,89);fill-rule:nonzero;"/>
            </g>
            <g transform="matrix(1,0,0,1,612.703,507.813)">
                <path d="M0,15.139C-1.016,21.004 -5.215,35.205 -29.41,35.205C-46.07,35.205 -59.182,25.932 -59.182,6.732C-59.182,-8.622 -49.548,-20.066 -28.613,-20.066C-5.07,-20.066 -1.594,-4.782 -0.798,-1.959L-11.082,-1.959C-11.663,-3.768 -15.721,-11.23 -28.033,-11.23C-42.593,-11.23 -48.677,-3.046 -48.677,7.893C-48.677,19.989 -39.914,26.363 -28.613,26.363C-16.589,26.363 -11.3,19.193 -10.287,15.139L0,15.139Z" style="fill:rgb(129,188,0);fill-rule:nonzero;"/>
            </g>
            <g transform="matrix(1,0,0,1,651.882,518.313)">
                <path d="M0,-5.867C8.403,-5.867 12.677,-7.098 12.677,-13.328C12.677,-19.483 8.403,-20.716 0,-20.716L-19.847,-20.716L-19.847,-5.867L0,-5.867ZM-30.131,-29.263L1.522,-29.263C13.981,-29.263 22.965,-26.44 22.965,-13.546C22.965,-3.838 16.012,1.523 8.26,1.956L24.412,23.396L11.735,23.396L-3.549,2.682L-19.847,2.682L-19.847,23.396L-30.131,23.396L-30.131,-29.263Z" style="fill:rgb(129,188,0);fill-rule:nonzero;"/>
            </g>
            <g transform="matrix(1,0,0,1,686.141,541.709)">
                <path d="M0,-52.659L47.227,-52.659L47.227,-43.825L10.285,-43.825L10.285,-31.581L42.084,-31.581L42.084,-22.743L10.285,-22.743L10.285,-8.835L48.095,-8.835L48.095,0L0,0L0,-52.659Z" style="fill:rgb(129,188,0);fill-rule:nonzero;"/>
            </g>
            <g transform="matrix(1,0,0,1,763.208,497.885)">
                <path d="M0,34.99C17.529,34.99 24.338,29.631 24.338,17.316C24.338,4.422 17.237,0 0,0L-10.432,0L-10.432,34.99L0,34.99ZM-20.719,-8.834L4.634,-8.834C21.295,-8.834 34.622,-1.809 34.622,17.17C34.622,35.133 22.456,43.824 5.069,43.824L-20.719,43.824L-20.719,-8.834Z" style="fill:rgb(129,188,0);fill-rule:nonzero;"/>
            </g>
            <g transform="matrix(1,0,0,1,0,238.759)">
                <rect x="807.533" y="250.291" width="10.287" height="52.659" style="fill:rgb(129,188,0);"/>
            </g>
            <g transform="matrix(1,0,0,1,849.689,532.875)">
                <path d="M0,-34.991L-23.544,-34.991L-23.544,-43.825L33.828,-43.825L33.828,-34.991L10.284,-34.991L10.284,8.834L0,8.834L0,-34.991Z" style="fill:rgb(129,188,0);fill-rule:nonzero;"/>
            </g>
            <g transform="matrix(1,0,0,1,973.254,512.958)">
                <path d="M0,6.153C0,23.103 -10.793,30.06 -27.959,30.06C-45.128,30.06 -55.92,23.103 -55.92,6.153L-55.92,-23.907L-45.633,-23.907L-45.633,5.429C-45.633,14.121 -42.519,21.218 -27.959,21.218C-13.401,21.218 -10.284,14.121 -10.284,5.429L-10.284,-23.907L0,-23.907L0,6.153Z" style="fill:rgb(129,188,0);fill-rule:nonzero;"/>
            </g>
            <g transform="matrix(1,0,0,1,985.707,541.709)">
                <path d="M0,-52.659L10.867,-52.659L46.07,-14.631L46.07,-52.659L55.921,-52.659L55.921,0L46.505,0L9.852,-39.402L9.852,0L0,0L0,-52.659Z" style="fill:rgb(129,188,0);fill-rule:nonzero;"/>
            </g>
            <g transform="matrix(1,0,0,1,0,238.759)">
                <rect x="1054.73" y="250.291" width="10.284" height="52.659" style="fill:rgb(129,188,0);"/>
            </g>
            <g transform="matrix(1,0,0,1,1127.16,515.564)">
                <path d="M0,-0.363C0,-13.042 -9.054,-18.981 -21.078,-18.981C-33.104,-18.981 -42.158,-13.042 -42.158,-0.363C-42.158,14.558 -30.929,18.612 -21.078,18.612C-11.226,18.612 0,14.558 0,-0.363M-21.078,-27.817C2.101,-27.817 10.287,-14.201 10.287,0.215C10.287,11.154 3.839,27.454 -21.078,27.454C-45.996,27.454 -52.444,11.154 -52.444,0.215C-52.444,-14.201 -44.256,-27.817 -21.078,-27.817" style="fill:rgb(129,188,0);fill-rule:nonzero;"/>
            </g>
            <g transform="matrix(1,0,0,1,1146.5,541.709)">
                <path d="M0,-52.659L10.865,-52.659L46.07,-14.631L46.07,-52.659L55.922,-52.659L55.922,0L46.505,0L9.852,-39.402L9.852,0L0,0L0,-52.659Z" style="fill:rgb(129,188,0);fill-rule:nonzero;"/>
            </g>
        </g>
    </g>
</svg>
